<?xml version="1.0" standalone="no"?>
<!DOCTYPE svg PUBLIC "-//W3C//DTD SVG 20010904//EN"
 "http://www.w3.org/TR/2001/REC-SVG-20010904/DTD/svg10.dtd">
<svg version="1.0" xmlns="http://www.w3.org/2000/svg"
 width="812.000000pt" height="814.000000pt" viewBox="0 0 812.000000 814.000000"
 preserveAspectRatio="xMidYMid meet">

<g transform="translate(0.000000,814.000000) scale(0.100000,-0.100000)"
fill="#000000" stroke="none">
<path d="M2030 8118 c-223 -13 -388 -32 -425 -48 -11 -5 -36 -11 -55 -13 -19
-3 -53 -10 -75 -17 -22 -6 -58 -15 -80 -19 -54 -11 -260 -95 -364 -148 -71
-37 -151 -87 -246 -153 -134 -94 -273 -236 -405 -416 -137 -184 -253 -441
-301 -664 -76 -349 -73 -276 -73 -2565 0 -2222 0 -2218 54 -2520 6 -33 13 -78
16 -100 4 -22 10 -44 15 -49 5 -6 9 -19 9 -30 0 -21 17 -80 31 -108 5 -10 9
-26 9 -36 0 -10 4 -22 8 -28 5 -5 19 -36 31 -69 32 -83 80 -182 113 -232 15
-23 28 -45 28 -49 0 -12 93 -138 166 -224 182 -215 412 -385 664 -493 130 -55
246 -92 369 -118 91 -18 161 -19 2542 -19 l2449 0 103 24 c286 68 531 185 754
358 376 294 616 703 702 1203 48 278 51 402 51 2495 0 2005 0 2009 -36 2330
-11 105 -55 306 -90 410 -64 192 -191 425 -324 591 -69 87 -266 273 -319 303
-9 5 -25 17 -36 26 -49 44 -241 150 -370 205 -72 31 -80 34 -120 46 -22 6 -48
15 -57 20 -10 5 -29 9 -42 9 -14 0 -27 4 -30 9 -3 5 -20 11 -38 14 -18 3 -55
11 -83 17 -117 26 -266 42 -545 59 -193 12 -3809 11 -4000 -1z m3048 -1318
c119 -115 425 -415 679 -667 l462 -458 12 -72 c12 -71 9 -593 -7 -1200 -5
-163 -3 -256 4 -285 9 -34 8 -52 -2 -83 -18 -52 -40 -55 -121 -16 -35 17 -75
31 -89 31 -14 0 -28 5 -31 10 -3 6 -21 10 -39 10 -17 0 -36 4 -41 9 -6 5 -30
12 -55 15 -25 4 -79 11 -120 18 -41 6 -124 11 -185 11 -96 1 -154 -5 -305 -28
-38 -6 -103 -23 -135 -35 -42 -15 -92 -30 -104 -30 -13 0 -107 -42 -206 -92
-187 -95 -419 -306 -546 -498 -96 -144 -108 -166 -148 -270 -18 -47 -36 -94
-41 -105 -7 -19 -21 -66 -35 -125 -30 -123 -40 -499 -16 -635 6 -38 14 -88 17
-110 4 -22 10 -44 15 -50 5 -5 9 -19 9 -31 0 -13 5 -26 10 -29 6 -3 10 -15 10
-26 0 -10 4 -27 9 -37 5 -9 21 -43 35 -74 71 -158 129 -263 162 -293 6 -5 33
-41 59 -79 46 -65 48 -69 30 -82 -16 -12 -224 -14 -1251 -14 -703 0 -1243 4
-1256 9 -13 5 -42 15 -65 22 -84 25 -163 127 -199 260 -17 60 -18 200 -18
2499 l-1 2435 23 65 c52 142 141 217 277 233 17 2 695 5 1508 6 l1479 1 216
-210z m517 -3424 c29 -13 199 -174 601 -572 44 -44 76 -85 84 -108 39 -119
-86 -231 -206 -186 -15 6 -101 84 -191 173 -90 89 -168 163 -172 165 -20 7
-25 -72 -30 -535 -6 -479 -7 -492 -27 -520 -72 -97 -186 -97 -258 0 -20 28
-21 41 -26 530 -3 276 -9 508 -14 515 -6 10 -58 -36 -196 -172 l-187 -186 -58
0 c-47 0 -65 5 -92 26 -62 47 -80 120 -47 190 19 40 652 664 691 681 38 16 87
16 128 -1z"/>
<path d="M4621 6198 c-24 -17 -157 -143 -295 -280 -138 -136 -258 -248 -267
-248 -27 0 -68 25 -109 67 -63 63 -134 127 -158 141 -38 21 -103 15 -136 -13
-25 -21 -29 -32 -30 -78 0 -55 5 -66 58 -115 15 -15 90 -89 166 -164 82 -81
149 -140 165 -144 16 -4 38 -1 56 7 34 17 675 642 701 684 32 53 19 122 -32
162 -26 21 -73 14 -119 -19z"/>
<path d="M3108 6212 c-33 -13 -479 -445 -532 -515 -37 -48 -58 -60 -88 -48
-13 5 -75 61 -138 125 -113 114 -116 116 -161 116 -50 0 -83 -22 -100 -68 -21
-56 -4 -88 119 -216 64 -67 142 -150 172 -184 55 -62 56 -62 109 -62 l55 0
153 153 c345 341 537 537 549 559 30 52 10 106 -47 131 -41 18 -63 20 -91 9z"/>
<path d="M2136 4756 c-70 -41 -95 -121 -55 -177 45 -63 -49 -59 1401 -59 1309
0 1323 0 1356 20 59 36 78 118 42 177 -40 66 43 62 -1398 62 l-1307 0 -39 -23z"/>
<path d="M2167 3779 c-47 -7 -66 -24 -90 -78 -18 -41 -18 -45 -2 -88 14 -36
26 -49 59 -64 39 -18 80 -19 846 -19 452 0 823 4 845 10 57 13 95 60 95 118 0
49 -22 95 -54 112 -23 12 -1629 21 -1699 9z"/>
<path d="M2117 2781 c-40 -38 -42 -42 -41 -97 0 -52 3 -59 37 -90 l37 -34 627
0 c605 0 629 1 660 20 88 53 83 176 -9 220 -40 19 -61 20 -655 20 l-614 0 -42
-39z"/>
</g>
</svg>
